<?xml version="1.0"?>
<svg xmlns="http://www.w3.org/2000/svg" xmlns:xlink="http://www.w3.org/1999/xlink" xmlns:svgjs="http://svgjs.com/svgjs" version="1.1" width="512" height="512" x="0" y="0" viewBox="0 0 466.015 466.015" style="enable-background:new 0 0 512 512" xml:space="preserve" class=""><g>
<g xmlns="http://www.w3.org/2000/svg">
	<path d="M329.511,272.46h-2.582v-9.957c0-6.43-5.705-9.626-10.207-10.813l-7.089-13.331c-0.611-1.148-1.741-1.928-3.031-2.091   l-52.144-6.579l-47.986-76.033c-0.733-1.161-2.01-1.865-3.383-1.865H88.744c-1.641,0-3.114,1.002-3.719,2.527L56.902,225.32H29.604   c-12.113,0-19.061,6.947-19.061,19.061v28.143C4.627,273.144,0,278.162,0,284.241v10.344c0,6.496,5.285,11.781,11.781,11.781   h35.574c2.169,19.159,18.466,34.098,38.194,34.098s36.026-14.939,38.195-34.098h93.802c2.169,19.159,18.465,34.098,38.192,34.098   c19.73,0,36.029-14.939,38.198-34.098h35.573c6.495,0,11.779-5.286,11.779-11.782v-10.343   C341.29,277.745,336.006,272.46,329.511,272.46z M85.55,322.465c-11.274,0-20.447-9.173-20.447-20.449   c0-11.275,9.173-20.449,20.447-20.449c11.275,0,20.448,9.173,20.448,20.449C105.998,313.291,96.825,322.465,85.55,322.465z    M255.739,322.465c-11.273,0-20.445-9.173-20.445-20.449c0-11.275,9.172-20.449,20.445-20.449c11.276,0,20.451,9.173,20.451,20.448   C276.19,313.291,267.016,322.465,255.739,322.465z" fill="#ffffff" data-original="#000000" style="" class=""/>
	<path d="M325.151,174.751c0.802,0.11,1.617,0.166,2.424,0.166h0.001c8.8,0,16.341-6.583,17.54-15.314l2.201-16.044   c0.384-2.788-0.342-5.558-2.044-7.799c-1.369-1.804-3.238-3.092-5.365-3.724c-2.485-3.254-6.131-5.394-10.245-5.959   c-0.707-0.097-1.425-0.146-2.134-0.146c-7.735,0-14.362,5.785-15.415,13.458l-2.113,15.399   C308.674,164.467,315.47,173.423,325.151,174.751z" fill="#ffffff" data-original="#000000" style="" class=""/>
	<path d="M459.338,218.199l-34.713-15.42c-0.595-0.322-1.223-0.579-1.868-0.79c-0.151-0.051-0.301-0.11-0.454-0.143   c-0.984-0.276-2.008-0.436-3.056-0.436c-2.293,0-4.505,0.688-6.398,1.991c-0.03,0.021-0.061,0.042-0.091,0.064l-15.741,11.487   l-22.916-26.295l12.288-1.116c2.606-0.141,5.01-1.276,6.776-3.203c0.256-0.28,16.279-21.04,16.279-21.04   c1.635-2.118,2.348-4.746,2.007-7.4c-0.341-2.654-1.695-5.017-3.812-6.65c-1.77-1.367-3.887-2.09-6.12-2.09   c-3.13,0-6.022,1.42-7.933,3.895l-13.02,16.862c0,0-30.316,2.797-30.592,2.886c-2.029,0.441-3.933,1.376-5.52,2.759l-10.389,9.054   c-1.921,1.674-3.247,3.851-3.864,6.271c-0.169,0.375-4.642,41.256-4.645,41.334c-0.119,2.471,0.597,4.852,2.021,6.83   c0.145,0.259,17.205,19.24,17.205,19.24c0.064,0.072,0.133,0.143,0.203,0.21c2.025,1.939,4.685,3.007,7.487,3.007   c2.939,0,5.788-1.217,7.814-3.334l0.201-0.209c4.088-4.27,3.977-11.05-0.219-15.191l-12.352-13.692l0.923-8.595l40.168,47.594   l-9.174,24.234c-1.211,2.696-1.322,5.703-0.31,8.486c1.031,2.836,3.104,5.101,5.817,6.366l0.297,0.14   c1.508,0.704,3.112,1.06,4.767,1.06c4.375,0,8.396-2.561,10.243-6.525c0.042-0.09,12.214-32.231,12.214-32.231   c0.255-0.853,0.286-1.368,0.347-1.702c0.538-2.97-0.075-5.971-1.779-8.461c-0.071-0.105-12.459-14.958-12.459-14.958l21.761-16.39   l29.224,12.982c1.472,0.663,3.031,0.999,4.637,0.999c4.436,0,8.48-2.615,10.287-6.628l0.142-0.309   C467.577,227.464,465.035,220.764,459.338,218.199z" fill="#ffffff" data-original="#000000" style="" class=""/>
	<path d="M262.91,210.579l35.5,15c0.762,0.322,1.554,0.475,2.332,0.475c2.339,0,4.563-1.377,5.53-3.666   c1.289-3.053-0.14-6.573-3.192-7.862l-35.5-15c-3.051-1.29-6.572,0.14-7.862,3.191C258.429,205.77,259.857,209.29,262.91,210.579z" fill="#ffffff" data-original="#000000" style="" class=""/>
	<path d="M298.323,201.623c1.026,2.165,3.18,3.431,5.426,3.431c0.861,0,1.736-0.187,2.566-0.58c2.994-1.419,4.271-4.997,2.852-7.992   l-32-67.5c-1.42-2.995-4.998-4.271-7.992-2.851c-2.994,1.419-4.271,4.997-2.852,7.992L298.323,201.623z" fill="#ffffff" data-original="#000000" style="" class=""/>
	<path d="M419.25,178.053c1.174,0,2.36-0.344,3.4-1.06l37-25.5c2.729-1.88,3.415-5.617,1.535-8.345   c-1.881-2.729-5.617-3.416-8.346-1.536l-37,25.5c-2.729,1.88-3.415,5.617-1.535,8.345   C415.469,177.146,417.344,178.053,419.25,178.053z" fill="#ffffff" data-original="#000000" style="" class=""/>
	<path d="M436.469,182.678c-3.245-0.674-6.421,1.407-7.098,4.65c-0.676,3.244,1.406,6.422,4.65,7.098l24,5   c0.413,0.086,0.824,0.127,1.229,0.127c2.782,0,5.278-1.946,5.868-4.777c0.676-3.244-1.406-6.422-4.65-7.098L436.469,182.678z" fill="#ffffff" data-original="#000000" style="" class=""/>
</g>
<g xmlns="http://www.w3.org/2000/svg">
</g>
<g xmlns="http://www.w3.org/2000/svg">
</g>
<g xmlns="http://www.w3.org/2000/svg">
</g>
<g xmlns="http://www.w3.org/2000/svg">
</g>
<g xmlns="http://www.w3.org/2000/svg">
</g>
<g xmlns="http://www.w3.org/2000/svg">
</g>
<g xmlns="http://www.w3.org/2000/svg">
</g>
<g xmlns="http://www.w3.org/2000/svg">
</g>
<g xmlns="http://www.w3.org/2000/svg">
</g>
<g xmlns="http://www.w3.org/2000/svg">
</g>
<g xmlns="http://www.w3.org/2000/svg">
</g>
<g xmlns="http://www.w3.org/2000/svg">
</g>
<g xmlns="http://www.w3.org/2000/svg">
</g>
<g xmlns="http://www.w3.org/2000/svg">
</g>
<g xmlns="http://www.w3.org/2000/svg">
</g>
</g></svg>
