<?xml version="1.0" encoding="iso-8859-1"?>
<!-- Generator: Adobe Illustrator 16.0.0, SVG Export Plug-In . SVG Version: 6.00 Build 0)  -->
<!DOCTYPE svg PUBLIC "-//W3C//DTD SVG 1.1//EN" "http://www.w3.org/Graphics/SVG/1.1/DTD/svg11.dtd">
<svg version="1.1" id="Capa_1" xmlns="http://www.w3.org/2000/svg" xmlns:xlink="http://www.w3.org/1999/xlink" x="0px" y="0px"
	 width="612px" height="612px" viewBox="0 0 612 612" style="enable-background:new 0 0 612 612;" xml:space="preserve">
<g>
	<g id="_x38__21_">
		<g>
			<path d="M306,0C137.006,0,0,137.006,0,306c0,168.993,137.006,306,306,306c168.993,0,306-137.007,306-306
				C612,137.006,474.993,0,306,0z M326.4,570.18V469.2c0-11.261-9.14-20.4-20.4-20.4s-20.4,9.14-20.4,20.4V570.18
				C155.448,560.245,51.714,456.531,41.779,326.4H142.8c11.261,0,20.4-9.14,20.4-20.4s-9.14-20.4-20.4-20.4H41.779
				C51.714,155.468,155.448,51.775,285.6,41.84V142.8c0,11.261,9.139,20.4,20.4,20.4s20.4-9.14,20.4-20.4V41.84
				c130.151,9.935,233.886,113.628,243.82,243.76H469.2c-11.261,0-20.4,9.139-20.4,20.4s9.14,20.4,20.4,20.4h101.021
				C560.286,456.531,456.552,560.245,326.4,570.18z"/>
		</g>
	</g>
</g>
<g>
</g>
<g>
</g>
<g>
</g>
<g>
</g>
<g>
</g>
<g>
</g>
<g>
</g>
<g>
</g>
<g>
</g>
<g>
</g>
<g>
</g>
<g>
</g>
<g>
</g>
<g>
</g>
<g>
</g>
</svg>
